<?xml version="1.0" encoding="utf-8"?>
<!-- Generator: Adobe Adobe Illustrator 24.2.0, SVG Export Plug-In . SVG Version: 6.00 Build 0)  -->
<svg version="1.1" xmlns="http://www.w3.org/2000/svg" xmlns:xlink="http://www.w3.org/1999/xlink" x="0px" y="0px"
	 width="287.77px" height="285.37px" viewBox="0 0 287.77 285.37" style="enable-background:new 0 0 287.77 285.37;"
	 xml:space="preserve">
<style type="text/css">
	.st0{display:none;}
	.st1{display:inline;fill:#383838;stroke:#383838;stroke-width:3;stroke-miterlimit:10;}
	.st2{fill:#383838;}
	.st3{fill:#8EC07C;}
	.st4{display:inline;}
	.st5{display:inline;fill:#8EC07C;}
</style>
<g id="Layer_1_copy" class="st0">
</g>
<g id="Logo">
</g>
<g id="Logo_copy" class="st0">
</g>
<g id="Logo_copy_2">
</g>
<g id="Letters" class="st0">
</g>
<g id="Layer_6" class="st0">
</g>
<g id="Layer_7" class="st0">
</g>
<g id="Layer_7_copy">
	<g>
		<g>
			<g>
				<path class="st3" d="M41.54,131.33v-5.73c0-1.02,0.83-1.85,1.85-1.85h15.17c1.02,0,1.85,0.83,1.85,1.85v5.73
					c0,1.02-0.83,1.85-1.85,1.85H43.39C42.37,133.18,41.54,132.35,41.54,131.33z"/>
				<path class="st3" d="M60.41,118.48v-5.73c0-1.02,0.83-1.85,1.85-1.85H68c1.02,0,1.85,0.83,1.85,1.85v5.73
					c0,1.02-0.83,1.85-1.85,1.85h-5.73C61.24,120.34,60.41,119.51,60.41,118.48z"/>
				<path class="st3" d="M69.85,137.45v14.1c0,7.37-5.98,13.35-13.35,13.35h-1.61c-7.37,0-13.35-5.98-13.35-13.35v-4.66
					c0-0.48,0.39-0.86,0.86-0.86h7.72c0.48,0,0.86,0.39,0.86,0.86v3.86c0,2.61,2.11,4.72,4.72,4.72h0c2.61,0,4.72-2.11,4.72-4.72
					v-13.3c0-0.48,0.39-0.86,0.86-0.86h7.72C69.46,136.59,69.85,136.97,69.85,137.45z"/>
			</g>
		</g>
		<g>
			<path class="st3" d="M101.94,153.59c0,4.11-1.29,6.75-3.58,8.62c-2.05,1.64-4.58,2.64-7.39,2.64c-2.82,0-5.34-1-7.39-2.64
				c-2.29-1.88-3.58-4.52-3.58-8.62v-15.55c0-4.11,1.29-6.75,3.58-8.62c2.05-1.64,4.58-2.64,7.39-2.64c2.82,0,5.34,1,7.39,2.64
				c2.29,1.88,3.58,4.52,3.58,8.62V153.59z M93.79,138.04c0-1.17-0.29-1.94-0.76-2.46c-0.53-0.59-1.23-0.94-2.05-0.94
				s-1.53,0.35-2.05,0.94c-0.47,0.53-0.76,1.29-0.76,2.46v15.55c0,1.17,0.29,1.94,0.76,2.46c0.53,0.59,1.23,0.94,2.05,0.94
				s1.53-0.35,2.05-0.94c0.47-0.53,0.76-1.29,0.76-2.46V138.04z"/>
			<path class="st3" d="M122.07,164.44c-3.23,0-5.75-0.76-7.51-2.35c-1.7-1.53-2.64-3.87-2.64-7.22v-18.54
				c0-0.65-0.47-1.23-1.06-1.35l-0.65-0.12c-1-0.18-1.76-1.12-1.76-2.23v-3.17c0-1.11,0.76-2.05,1.76-2.23l0.65-0.12
				c0.59-0.12,1.06-0.7,1.06-1.35v-3.4c0-1.29,1-2.29,2.29-2.29h3.58c1.29,0,2.29,1,2.29,2.29v3.4c0,0.76,0.53,1.41,1.41,1.41h1.58
				c1.29,0,2.29,1,2.29,2.29v3.17c0,1.29-1,2.29-2.29,2.29h-1.53c-0.88,0-1.47,0.59-1.47,1.35v17.25c0,1.82,0.82,2.82,2.23,2.93
				l0.76,0.06c1.29,0.12,2.29,1,2.29,2.29v3.34c0,1.29-1,2.29-2.29,2.29H122.07z"/>
			<path class="st3" d="M145.37,164.44c-3.23,0-5.75-0.76-7.51-2.35c-1.7-1.53-2.64-3.87-2.64-7.22v-18.54
				c0-0.65-0.47-1.23-1.06-1.35l-0.65-0.12c-1-0.18-1.76-1.12-1.76-2.23v-3.17c0-1.11,0.76-2.05,1.76-2.23l0.65-0.12
				c0.59-0.12,1.06-0.7,1.06-1.35v-3.4c0-1.29,1-2.29,2.29-2.29h3.58c1.29,0,2.29,1,2.29,2.29v3.4c0,0.76,0.53,1.41,1.41,1.41h1.58
				c1.29,0,2.29,1,2.29,2.29v3.17c0,1.29-1,2.29-2.29,2.29h-1.53c-0.88,0-1.47,0.59-1.47,1.35v17.25c0,1.82,0.82,2.82,2.23,2.93
				l0.76,0.06c1.29,0.12,2.29,1,2.29,2.29v3.34c0,1.29-1,2.29-2.29,2.29H145.37z"/>
			<path class="st3" d="M177.11,153.88c0,3.81-1.29,6.45-3.58,8.33c-2.05,1.64-4.58,2.64-7.39,2.64c-2.82,0-5.34-1-7.39-2.64
				c-2.29-1.88-3.58-4.52-3.58-8.62v-15.55c0-4.11,1.29-6.75,3.58-8.62c2.05-1.64,4.58-2.64,7.39-2.64c2.82,0,5.34,1,7.39,2.64
				c2.29,1.88,3.58,4.52,3.58,8.33v7.39c0,1.47-1.17,2.93-2.93,2.93h-9.45c-0.82,0-1.41,0.59-1.41,1.35v4.34
				c0,1.17,0.29,1.82,0.76,2.35c0.53,0.59,1.23,0.94,2.05,0.94c0.7,0,1.41-0.29,1.94-0.76c0.53-0.53,0.88-1.23,0.88-2.52v-0.59
				c0-1.29,1-2.29,2.29-2.29h3.58c1.29,0,2.29,1,2.29,2.29V153.88z M163.32,139.74c0,0.76,0.59,1.35,1.41,1.35h2.7
				c0.88,0,1.53-0.59,1.53-1.35v-1.94c0-1.17-0.35-1.88-0.88-2.41c-0.53-0.47-1.12-0.76-1.94-0.76s-1.53,0.35-2.05,0.94
				c-0.47,0.53-0.76,1.17-0.76,2.35V139.74z"/>
			<path class="st3" d="M187.85,164.44c-1.29,0-2.29-1-2.29-2.29v-32.5c0-1,0.35-1.7,0.88-2.17c0.47-0.41,1.12-0.65,1.82-0.65
				c0.82,0,1.53,0.35,2.11,0.82l0.23,0.18c0.35,0.29,0.82,0.53,1.35,0.53c0.65,0,1.35-0.53,2.41-0.94c1.06-0.41,1.94-0.59,2.82-0.59
				c1.76,0,2.46,1.11,2.46,2.41v4.22c0,1.29-1,2.29-2.29,2.29h-1.53c-0.65,0-1.17,0.18-1.53,0.59c-0.47,0.41-0.59,0.94-0.59,2.35
				v23.47c0,1.29-1,2.29-2.29,2.29H187.85z"/>
			<path class="st3" d="M215.78,162.15c0,1.29-1,2.29-2.29,2.29h-3.58c-1.29,0-2.29-1-2.29-2.29v-43.83c0-1.29,1-2.29,2.29-2.29
				h3.58c1.29,0,2.29,1,2.29,2.29V162.15z"/>
			<path class="st3" d="M246.23,163.85c0,3.75-1.35,6.45-3.7,8.27c-1.94,1.47-4.34,2.35-7.16,2.35s-5.46-0.94-7.51-2.52
				c-2.29-1.82-3.52-4.11-3.52-7.33c0-0.12,0-0.18,0-0.29c0.12-1.17,1.12-2,2.29-2h3.58c1.23,0,2.11,0.82,2.29,2.11l0.06,0.29
				c0.12,0.53,0.35,1,0.7,1.29c0.41,0.41,1.06,0.59,1.88,0.59c1,0,1.7-0.35,2.23-0.94c0.47-0.53,0.76-1.23,0.76-2.41v-1.41
				c0-0.47-0.18-0.88-0.59-1.12c-0.23-0.12-0.53-0.23-0.88-0.23h-1.12c-1.47,0-1.7-0.06-1.99-0.06c-1.82-0.12-3.81-0.7-5.75-2.23
				c-2.93-2.35-3.52-5.93-3.52-8.39v-20.36c0-1.29,1-2.29,2.29-2.29h3.58c1.29,0,2.29,1,2.29,2.41v20.42c0,1.29,0.35,1.99,0.88,2.52
				c0.53,0.47,1.23,0.76,1.94,0.76h1.35c0.88,0,1.47-0.59,1.47-1.35v-22.47c0-1.29,1-2.29,2.29-2.29h3.58c1.29,0,2.29,1,2.29,2.29
				V163.85z"/>
		</g>
	</g>
</g>
</svg>
