<?xml version="1.0" encoding="UTF-8" standalone="no"?>
<!-- Generator: Adobe Adobe Illustrator 24.2.0, SVG Export Plug-In . SVG Version: 6.00 Build 0)  -->

<svg
   version="1.1"
   x="0px"
   y="0px"
   width="181.41"
   height="63.57"
   viewBox="0 0 181.41001 63.570001"
   xml:space="preserve"
   id="svg38"
   xmlns="http://www.w3.org/2000/svg"
   xmlns:svg="http://www.w3.org/2000/svg"><defs
   id="defs42" />
<style
   type="text/css"
   id="style2">
	.st0{display:none;}
	.st1{display:inline;fill:#383838;stroke:#383838;stroke-width:3;stroke-miterlimit:10;}
	.st2{fill:#383838;}
	.st3{fill:#8EC07C;}
	.st4{display:inline;}
	.st5{display:inline;fill:#8EC07C;}
</style>







<g
   id="Layer_7_copy"
   transform="translate(-50.160002,-110.9)">
	<g
   id="g35">
		<g
   id="g19">
			<g
   id="g17">
				<path
   class="st3"
   d="m 50.16,131.33 v -5.73 c 0,-1.02 0.83,-1.85 1.85,-1.85 h 15.17 c 1.02,0 1.85,0.83 1.85,1.85 v 5.73 c 0,1.02 -0.83,1.85 -1.85,1.85 H 52.02 c -1.03,0 -1.86,-0.83 -1.86,-1.85 z"
   id="path11" />
				<path
   class="st3"
   d="m 69.04,118.48 v -5.73 c 0,-1.02 0.83,-1.85 1.85,-1.85 h 5.73 c 1.02,0 1.85,0.83 1.85,1.85 v 5.73 c 0,1.02 -0.83,1.85 -1.85,1.85 h -5.73 c -1.02,0.01 -1.85,-0.82 -1.85,-1.85 z"
   id="path13" />
				<path
   class="st3"
   d="m 78.47,137.45 v 14.1 c 0,7.37 -5.98,13.35 -13.35,13.35 h -1.61 c -7.37,0 -13.35,-5.98 -13.35,-13.35 v -4.66 c 0,-0.48 0.39,-0.86 0.86,-0.86 h 7.72 c 0.48,0 0.86,0.39 0.86,0.86 v 3.86 c 0,2.61 2.11,4.72 4.72,4.72 v 0 c 2.61,0 4.72,-2.11 4.72,-4.72 v -13.3 c 0,-0.48 0.39,-0.86 0.86,-0.86 h 7.72 c 0.47,0 0.85,0.38 0.85,0.86 z"
   id="path15" />
			</g>
		</g>
		<g
   id="g33">
			<path
   class="st3"
   d="m 110.57,153.59 c 0,4.11 -1.29,6.75 -3.58,8.62 -2.05,1.64 -4.58,2.64 -7.39,2.64 -2.81,0 -5.34,-1 -7.39,-2.64 -2.29,-1.88 -3.58,-4.52 -3.58,-8.62 v -15.55 c 0,-4.11 1.29,-6.75 3.58,-8.62 2.05,-1.64 4.58,-2.64 7.39,-2.64 2.81,0 5.34,1 7.39,2.64 2.29,1.88 3.58,4.52 3.58,8.62 z m -8.16,-15.55 c 0,-1.17 -0.29,-1.94 -0.76,-2.46 -0.53,-0.59 -1.23,-0.94 -2.05,-0.94 -0.82,0 -1.53,0.35 -2.05,0.94 -0.47,0.53 -0.76,1.29 -0.76,2.46 v 15.55 c 0,1.17 0.29,1.94 0.76,2.46 0.53,0.59 1.23,0.94 2.05,0.94 0.82,0 1.53,-0.35 2.05,-0.94 0.47,-0.53 0.76,-1.29 0.76,-2.46 z"
   id="path21" />
			<path
   class="st3"
   d="m 130.7,164.44 c -3.23,0 -5.75,-0.76 -7.51,-2.35 -1.7,-1.53 -2.64,-3.87 -2.64,-7.22 v -18.54 c 0,-0.65 -0.47,-1.23 -1.06,-1.35 l -0.65,-0.12 c -1,-0.18 -1.76,-1.12 -1.76,-2.23 v -3.17 c 0,-1.11 0.76,-2.05 1.76,-2.23 l 0.65,-0.12 c 0.59,-0.12 1.06,-0.7 1.06,-1.35 v -3.4 c 0,-1.29 1,-2.29 2.29,-2.29 h 3.58 c 1.29,0 2.29,1 2.29,2.29 v 3.4 c 0,0.76 0.53,1.41 1.41,1.41 h 1.58 c 1.29,0 2.29,1 2.29,2.29 v 3.17 c 0,1.29 -1,2.29 -2.29,2.29 h -1.53 c -0.88,0 -1.47,0.59 -1.47,1.35 v 17.25 c 0,1.82 0.82,2.82 2.23,2.93 l 0.76,0.06 c 1.29,0.12 2.29,1 2.29,2.29 v 3.34 c 0,1.29 -1,2.29 -2.29,2.29 h -0.99 z"
   id="path23" />
			<path
   class="st3"
   d="m 162.44,153.88 c 0,3.81 -1.29,6.45 -3.58,8.33 -2.05,1.64 -4.58,2.64 -7.39,2.64 -2.81,0 -5.34,-1 -7.39,-2.64 -2.29,-1.88 -3.58,-4.52 -3.58,-8.62 v -15.55 c 0,-4.11 1.29,-6.75 3.58,-8.62 2.05,-1.64 4.58,-2.64 7.39,-2.64 2.81,0 5.34,1 7.39,2.64 2.29,1.88 3.58,4.52 3.58,8.33 v 7.39 c 0,1.47 -1.17,2.93 -2.93,2.93 h -9.45 c -0.82,0 -1.41,0.59 -1.41,1.35 v 4.34 c 0,1.17 0.29,1.82 0.76,2.35 0.53,0.59 1.23,0.94 2.05,0.94 0.7,0 1.41,-0.29 1.94,-0.76 0.53,-0.53 0.88,-1.23 0.88,-2.52 v -0.59 c 0,-1.29 1,-2.29 2.29,-2.29 h 3.58 c 1.29,0 2.29,1 2.29,2.29 z m -13.79,-14.14 c 0,0.76 0.59,1.35 1.41,1.35 h 2.7 c 0.88,0 1.53,-0.59 1.53,-1.35 v -1.94 c 0,-1.17 -0.35,-1.88 -0.88,-2.41 -0.53,-0.47 -1.12,-0.76 -1.94,-0.76 -0.82,0 -1.53,0.35 -2.05,0.94 -0.47,0.53 -0.76,1.17 -0.76,2.35 v 1.82 z"
   id="path25" />
			<path
   class="st3"
   d="m 173.18,164.44 c -1.29,0 -2.29,-1 -2.29,-2.29 v -32.5 c 0,-1 0.35,-1.7 0.88,-2.17 0.47,-0.41 1.12,-0.65 1.82,-0.65 0.82,0 1.53,0.35 2.11,0.82 l 0.23,0.18 c 0.35,0.29 0.82,0.53 1.35,0.53 0.65,0 1.35,-0.53 2.41,-0.94 1.06,-0.41 1.94,-0.59 2.82,-0.59 1.76,0 2.46,1.11 2.46,2.41 v 4.22 c 0,1.29 -1,2.29 -2.29,2.29 h -1.53 c -0.65,0 -1.17,0.18 -1.53,0.59 -0.47,0.41 -0.59,0.94 -0.59,2.35 v 23.47 c 0,1.29 -1,2.29 -2.29,2.29 h -3.56 z"
   id="path27" />
			<path
   class="st3"
   d="m 201.11,162.15 c 0,1.29 -1,2.29 -2.29,2.29 h -3.58 c -1.29,0 -2.29,-1 -2.29,-2.29 v -43.83 c 0,-1.29 1,-2.29 2.29,-2.29 h 3.58 c 1.29,0 2.29,1 2.29,2.29 z"
   id="path29" />
			<path
   class="st3"
   d="m 231.56,163.85 c 0,3.75 -1.35,6.45 -3.7,8.27 -1.94,1.47 -4.34,2.35 -7.16,2.35 -2.82,0 -5.46,-0.94 -7.51,-2.52 -2.29,-1.82 -3.52,-4.11 -3.52,-7.33 0,-0.12 0,-0.18 0,-0.29 0.12,-1.17 1.12,-2 2.29,-2 h 3.58 c 1.23,0 2.11,0.82 2.29,2.11 l 0.06,0.29 c 0.12,0.53 0.35,1 0.7,1.29 0.41,0.41 1.06,0.59 1.88,0.59 1,0 1.7,-0.35 2.23,-0.94 0.47,-0.53 0.76,-1.23 0.76,-2.41 v -1.41 c 0,-0.47 -0.18,-0.88 -0.59,-1.12 -0.23,-0.12 -0.53,-0.23 -0.88,-0.23 h -1.12 c -1.47,0 -1.7,-0.06 -1.99,-0.06 -1.82,-0.12 -3.81,-0.7 -5.75,-2.23 -2.93,-2.35 -3.52,-5.93 -3.52,-8.39 v -20.36 c 0,-1.29 1,-2.29 2.29,-2.29 h 3.58 c 1.29,0 2.29,1 2.29,2.41 V 150 c 0,1.29 0.35,1.99 0.88,2.52 0.53,0.47 1.23,0.76 1.94,0.76 h 1.35 c 0.88,0 1.47,-0.59 1.47,-1.35 v -22.47 c 0,-1.29 1,-2.29 2.29,-2.29 h 3.58 c 1.29,0 2.29,1 2.29,2.29 v 34.39 z"
   id="path31" />
		</g>
	</g>
</g>
</svg>
